<svg width="104" height="29" viewBox="0 0 104 29" fill="none" xmlns="http://www.w3.org/2000/svg">
<path d="M16.6018 3.46036H20.6673C20.674 3.55787 20.674 3.67713 20.674 3.83239C20.674 4.91959 20.3227 5.81928 19.6339 6.55395C18.9425 7.2785 18.0676 7.64115 16.9976 7.64115C15.9275 7.64115 15.0156 7.26838 14.2794 6.5322C13.5506 5.79827 13.1742 4.88659 13.1742 3.82189C13.1742 2.75719 13.5382 1.84588 14.2711 1.1097C15.004 0.375401 15.9118 0 16.9733 0C18.5912 0 19.9093 0.80143 20.4344 2.1309L19.6593 2.40467C19.1436 1.36247 18.1666 0.813431 16.9733 0.813431C16.1533 0.813431 15.4551 1.10895 14.896 1.69137C14.3369 2.27341 14.054 2.97583 14.054 3.82151C14.054 4.6672 14.3369 5.37975 14.9028 5.96254C15.4839 6.54195 16.1869 6.82997 17.0147 6.82997C17.7824 6.82997 18.4215 6.58695 18.935 6.10392C19.4474 5.62014 19.7524 5.00584 19.8436 4.24829H16.6021V3.46036H16.6018Z" fill="#025F9B"/>
<path d="M27.1378 2.07539L27.0728 2.87682C27.007 2.8667 26.899 2.8667 26.7554 2.8667C25.3681 2.8667 24.5878 3.88677 24.5878 5.41275V7.49789H23.7457V2.08627H24.5878V3.41311C25.0912 2.4928 25.8148 2.03114 26.7554 2.03114C26.9091 2.03114 27.041 2.04389 27.1378 2.07502" fill="#025F9B"/>
<path d="M34.6757 2.08664V7.48739H33.8348V6.60946C33.3736 7.28825 32.6956 7.62878 31.7972 7.62878C31.1528 7.62878 30.6292 7.42026 30.2248 6.99236C29.8287 6.5652 29.6321 6.01466 29.6321 5.32387V2.08664H30.4749V5.17161C30.4749 6.1808 31.077 6.85022 31.9627 6.85022C33.1101 6.85022 33.8348 6.06042 33.8348 4.68707V2.08664H34.6757Z" fill="#025F9B"/>
<path d="M42.97 2.75644C43.5071 3.2826 43.7732 3.96402 43.7732 4.79771C43.7732 5.63139 43.5071 6.31281 42.97 6.84985C42.4483 7.37788 41.8088 7.64115 41.0793 7.64115C40.1464 7.64115 39.4352 7.31075 38.9322 6.64321V9.36402H38.104V2.08702H38.9322V2.95445C39.4356 2.28503 40.1464 1.95388 41.0793 1.95388C41.8088 1.95388 42.4479 2.21753 42.97 2.75606M42.3814 6.32369C42.7648 5.94003 42.9599 5.424 42.9599 4.79771C42.9599 4.17141 42.7648 3.65575 42.3814 3.27173C41.9964 2.88882 41.5143 2.68894 40.9459 2.68894C40.4095 2.68894 39.9401 2.88882 39.5365 3.28298C39.1295 3.66775 38.9318 4.17254 38.9318 4.79808C38.9318 5.42362 39.1295 5.91753 39.5365 6.31318C39.9401 6.69684 40.4095 6.89523 40.9459 6.89523C41.5143 6.89523 41.9964 6.70884 42.3814 6.32406" fill="#025F9B"/>
<path d="M51.1123 2.76769C51.6714 3.2931 51.9472 3.96327 51.9472 4.78683C51.9472 5.61039 51.671 6.28993 51.1123 6.8296C50.5644 7.36588 49.8879 7.62953 49.0892 7.62953C48.2905 7.62953 47.5999 7.36588 47.0434 6.8296C46.4944 6.28993 46.2219 5.61039 46.2219 4.78683C46.2219 3.96327 46.4947 3.2931 47.0434 2.76769C47.5999 2.23065 48.2778 1.96551 49.0892 1.96551C49.9006 1.96551 50.5644 2.23065 51.1123 2.76769ZM50.5244 6.30156C50.928 5.90591 51.1223 5.40075 51.1223 4.78645C51.1223 4.17216 50.928 3.67638 50.5244 3.29273C50.1301 2.89895 49.6453 2.70131 49.0888 2.70131C48.5323 2.70131 48.0375 2.89857 47.6339 3.29273C47.2261 3.67638 47.0292 4.18229 47.0292 4.78645C47.0292 5.39062 47.2258 5.90591 47.6339 6.30156C48.0375 6.69646 48.5196 6.89485 49.0888 6.89485C49.658 6.89485 50.1301 6.69646 50.5244 6.30156Z" fill="#025F9B"/>
<path d="M13.4123 17.6123L24.7414 28.9992L28.7833 24.9355L17.452 13.5497L13.4123 17.6123Z" fill="#0C3761"/>
<path d="M16.4418 12.5206C15.3195 11.3955 13.5069 11.3955 12.3864 12.5206L0 24.9362L4.04122 28.9996L14.3907 18.5975C16.6268 16.3489 20.2584 16.3489 22.4986 18.5975L16.4418 12.5206Z" fill="#025F9B"/>
<path d="M67.1725 17.6123L78.5034 28.9992L82.548 24.9355L71.2156 13.5497L67.1725 17.6123Z" fill="#0C3761"/>
<path d="M70.2061 12.5206C69.0823 11.3955 67.2719 11.3955 66.1496 12.5206L53.7624 24.9358L57.8055 28.9992L68.155 18.5972C70.3918 16.3485 74.0227 16.3485 76.2629 18.5972L70.2061 12.5202V12.5206Z" fill="#025F9B"/>
<path d="M42.5301 23.0641L31.1977 11.6772L27.1539 15.741L38.4874 27.1301L42.5301 23.0641Z" fill="#97262C"/>
<path d="M39.5006 28.1562C40.6177 29.2813 42.4348 29.2813 43.5519 28.1562L55.9417 15.741L51.8971 11.6776L41.5483 22.0796C39.3081 24.3302 35.6799 24.3302 33.4405 22.0796L39.5006 28.1566V28.1562Z" fill="#CF3320"/>
<path d="M90.9407 11.6359H85.5611V24.8927H90.9407V11.6359Z" fill="#0C3761"/>
<path d="M85.5663 26.2533C85.5663 27.7489 86.7746 28.9587 88.2666 28.9587L103.477 28.9809V23.582L90.956 23.5846C87.9788 23.5846 85.5611 21.1631 85.5611 18.1749L85.5663 26.2537V26.2533Z" fill="#025F9B"/>
</svg>
