<svg width="147" height="15" viewBox="0 0 147 15" fill="none" xmlns="http://www.w3.org/2000/svg">
<g clip-path="url(#clip0_3038_21315)">
<path fill-rule="evenodd" clip-rule="evenodd" d="M4.55234 10.0487L2.91407 5.40055H3.52641L4.62231 8.76742C4.71209 9.05555 4.80186 9.31117 4.86254 9.52992C4.9195 9.2893 4.99875 9.04055 5.07924 8.76742L6.23086 5.40055H6.80791L5.13497 10.0487H4.55234ZM10.1061 5.40055V10.0487H10.6832V5.39992H10.1068L10.1061 5.40055ZM16.3472 8.21117V7.67867H18.1551V9.39867C17.8703 9.64992 17.5973 9.82367 17.3131 9.94367C17.0097 10.0637 16.7106 10.108 16.4011 10.108C15.9844 10.108 15.5993 10.0305 15.2724 9.84117C14.9126 9.64992 14.6588 9.36742 14.4891 8.98555C14.3096 8.6268 14.2303 8.2018 14.2303 7.73305C14.2303 7.28555 14.3102 6.8668 14.4891 6.4693C14.6588 6.07742 14.9064 5.8043 15.242 5.61055C15.559 5.41742 15.9379 5.32617 16.3466 5.32617C16.6599 5.32617 16.9447 5.35242 17.1824 5.47867C17.4326 5.58805 17.6363 5.75055 17.7762 5.93492C17.9161 6.13117 18.0164 6.38242 18.0994 6.69617L17.5867 6.8493C17.5267 6.6118 17.4468 6.43742 17.3533 6.29555C17.2474 6.16867 17.1137 6.0443 16.9447 5.96805C16.7701 5.88055 16.5664 5.84367 16.3466 5.84367C16.102 5.84367 15.8779 5.88055 15.689 5.9793C15.5089 6.05555 15.3454 6.18617 15.242 6.3068C15.1262 6.45867 15.0364 6.6118 14.982 6.76305C14.8631 7.06305 14.8129 7.3768 14.8129 7.70055C14.8129 8.11555 14.8625 8.4693 15.0018 8.76742C15.1361 9.02305 15.3114 9.24555 15.5695 9.3718C15.8184 9.50305 16.0878 9.57242 16.3713 9.57242C16.6066 9.57242 16.8407 9.52055 17.0834 9.42055C17.323 9.3118 17.4771 9.20492 17.6121 9.09555V8.21117H16.3466H16.3472ZM21.7858 5.40055V10.0487H22.3579V5.39992H21.7858V5.40055ZM26.0208 10.0487V5.39992H26.5966V9.48492L28.6782 9.48492V10.0474L26.0208 10.0474V10.0487ZM31.5889 10.0487L33.221 5.40055H33.8296L35.5725 10.0487H34.9255L34.4264 8.64242H32.6544L32.1814 10.0487H31.5889ZM32.808 8.1368H34.2587L33.8104 6.8493C33.6767 6.45867 33.5664 6.13117 33.5107 5.88055C33.4674 6.18617 33.3807 6.4693 33.2779 6.76242L32.808 8.13742V8.1368ZM38.7153 10.0487V5.39992H40.2C40.514 5.39992 40.7635 5.4168 40.943 5.46117C41.1826 5.52242 41.3962 5.63617 41.5696 5.80367C41.795 6.00617 41.9547 6.27242 42.068 6.59305C42.1881 6.91367 42.242 7.28492 42.242 7.69992C42.242 8.06367 42.1981 8.37492 42.112 8.64242C42.0482 8.91305 41.9547 9.1268 41.8383 9.31117C41.7095 9.48492 41.5851 9.62742 41.4557 9.73617C41.312 9.84055 41.1362 9.92117 40.9424 9.98305C40.7437 10.0299 40.514 10.048 40.2471 10.048H38.7153V10.0487ZM39.2887 9.48617H40.2C40.4694 9.48617 40.6786 9.46367 40.8632 9.42055C41.0223 9.36742 41.1362 9.26742 41.2322 9.17617C41.3622 9.02305 41.4755 8.83992 41.5356 8.57805C41.6247 8.33117 41.6551 8.0368 41.6551 7.69055C41.6551 7.20555 41.5851 6.8343 41.4315 6.57805C41.2867 6.3068 41.122 6.13117 40.9127 6.0443C40.7536 5.9793 40.514 5.93555 40.1759 5.93555H39.2887V9.48555V9.48617ZM45.5508 7.7768C45.5508 7.0143 45.7446 6.4043 46.1179 5.96805C46.5005 5.53117 46.9903 5.32617 47.5766 5.32617C47.976 5.32617 48.3147 5.41742 48.6484 5.61055C48.9518 5.83305 49.2007 6.12055 49.3604 6.48055C49.5338 6.8493 49.6143 7.2743 49.6143 7.7218C49.6143 8.2018 49.5214 8.6268 49.3511 8.9968C49.1716 9.36742 48.9375 9.64992 48.6187 9.84117C48.2843 10.0305 47.9661 10.108 47.5766 10.108C47.1736 10.108 46.8237 10.0305 46.5111 9.82367C46.1817 9.60555 45.9476 9.31117 45.7842 8.94242C45.6244 8.57117 45.5508 8.18867 45.5508 7.7768ZM46.1216 7.7768C46.1216 8.37555 46.2609 8.80055 46.5414 9.12055C46.8095 9.44242 47.1637 9.60555 47.5766 9.60555C48.0057 9.60555 48.3456 9.44305 48.6286 9.12055C48.8973 8.7893 49.0409 8.33117 49.0409 7.7218C49.0409 7.34742 48.9821 7.01367 48.8521 6.74055C48.7481 6.45867 48.5629 6.2343 48.3388 6.07805C48.1295 5.91305 47.8621 5.84367 47.5964 5.84367C47.1797 5.84367 46.8504 6.00617 46.5507 6.29555C46.2708 6.59367 46.1216 7.0893 46.1216 7.7768Z" fill="black"/>
<mask id="mask0_3038_21315" style="mask-type:alpha" maskUnits="userSpaceOnUse" x="55" y="2" width="92" height="12">
<path d="M146.323 2.15625V13.1138L55.5307 13.1138V2.15625L146.323 2.15625Z" fill="white"/>
</mask>
<g mask="url(#mask0_3038_21315)">
<path fill-rule="evenodd" clip-rule="evenodd" d="M82.1407 13.0388V8.74063H83.4799C83.7969 8.74063 84.0285 8.7675 84.1919 8.80563C84.4117 8.87063 84.6148 8.965 84.7591 9.12125C84.9683 9.3125 85.1231 9.54125 85.2277 9.85313C85.3367 10.1513 85.3918 10.4894 85.3918 10.87C85.3918 11.1969 85.3516 11.4925 85.2822 11.7369C85.2147 11.9975 85.1231 12.2106 85.0036 12.3694C84.8953 12.5375 84.7826 12.6575 84.655 12.76C84.525 12.8644 84.3721 12.9294 84.1919 12.9738C83.9882 13.0388 83.7826 13.0388 83.5529 13.0388H82.1407ZM82.6576 12.5375H83.4898C83.7529 12.5375 83.9572 12.5113 84.112 12.45C84.2464 12.4063 84.3721 12.3294 84.452 12.2313C84.5857 12.0963 84.6649 11.9263 84.7448 11.6881C84.8142 11.47 84.8426 11.1969 84.8426 10.8475C84.8426 10.4069 84.769 10.0644 84.6445 9.82438C84.5157 9.58438 84.3461 9.42125 84.1461 9.33313C84.0086 9.28125 83.7826 9.25188 83.4799 9.25188H82.6576V12.5375ZM86.1144 13.0388V8.74063H88.9619V9.2525H86.627V10.5713H88.8182V11.0769H86.6264V12.5375H89.0473V13.0388H86.1144ZM94.099 11.5288L94.6215 11.6881C94.5256 12.1506 94.3181 12.4938 94.0494 12.76C93.7399 13.0006 93.4123 13.1138 92.9876 13.1138C92.5746 13.1138 92.2347 13.0388 91.9617 12.8425C91.6985 12.6575 91.4886 12.3844 91.3487 12.0131C91.2193 11.6594 91.1493 11.2744 91.1493 10.8475C91.1493 10.425 91.2255 10.0313 91.3889 9.7C91.5289 9.36875 91.748 9.10625 92.0514 8.9325C92.3307 8.7675 92.644 8.67 93.0173 8.67C93.3863 8.67 93.7238 8.77938 94.003 8.99688C94.263 9.22438 94.4587 9.53 94.5584 9.92188L94.0556 10.0644C93.9597 9.7375 93.8197 9.50375 93.655 9.39063C93.4718 9.22438 93.2569 9.15438 92.9876 9.15438C92.6842 9.15438 92.4304 9.24625 92.2347 9.39938C92.0359 9.54125 91.8917 9.77063 91.8124 10.0363C91.7282 10.305 91.6985 10.5775 91.6985 10.8475C91.6985 11.23 91.7381 11.5463 91.8322 11.8169C91.9276 12.0963 92.0867 12.3088 92.2904 12.445C92.4947 12.5763 92.7176 12.6244 92.9492 12.6244C93.2402 12.6244 93.4922 12.5488 93.6959 12.3694C93.8996 12.1775 94.0494 11.895 94.0984 11.5288H94.099ZM95.115 10.9525C95.115 10.24 95.2884 9.6725 95.6481 9.26813C95.9905 8.87688 96.4406 8.67 96.9929 8.67C97.3557 8.67 97.6894 8.7675 97.9742 8.95438C98.2683 9.13938 98.4863 9.39938 98.6411 9.75938C98.8021 10.0863 98.8708 10.4731 98.8708 10.9094C98.8708 11.3394 98.8014 11.7369 98.6374 12.0706C98.4621 12.4131 98.2423 12.6788 97.9489 12.8644C97.6653 13.0388 97.3328 13.1138 96.9929 13.1138C96.6232 13.1138 96.2901 13.0388 95.9905 12.8213C95.6976 12.6244 95.484 12.3694 95.3342 12.035C95.185 11.6881 95.115 11.3288 95.115 10.9525ZM95.6524 10.9569C95.6524 11.4813 95.7571 11.8819 96.0109 12.1881C96.2864 12.4713 96.609 12.6244 96.9929 12.6244C97.3755 12.6244 97.7049 12.4712 97.955 12.1775C98.2083 11.8825 98.3278 11.4475 98.3278 10.8988C98.3278 10.5644 98.2826 10.2506 98.1749 9.98438C98.0591 9.71563 97.9086 9.52188 97.7055 9.39063C97.4994 9.22438 97.2659 9.15438 96.9935 9.15438C96.6294 9.15438 96.3199 9.3125 96.0549 9.57313C95.7769 9.85313 95.6524 10.3156 95.6524 10.9569ZM99.5283 13.0381V8.74063H100.042V12.5375H101.981V13.0388H99.5277L99.5283 13.0381ZM102.447 10.9525C102.447 10.24 102.624 9.6725 102.976 9.26813C103.32 8.87688 103.77 8.67 104.325 8.67C104.688 8.67 105.028 8.7675 105.301 8.95438C105.594 9.13938 105.824 9.39938 105.987 9.75938C106.133 10.0863 106.213 10.4731 106.213 10.9094C106.213 11.3394 106.133 11.7369 105.958 12.0706C105.818 12.4131 105.564 12.6788 105.291 12.8644C104.976 13.0388 104.658 13.1138 104.325 13.1138C103.946 13.1138 103.623 13.0388 103.334 12.8213C103.043 12.6244 102.817 12.3694 102.666 12.035C102.511 11.6881 102.447 11.3288 102.447 10.9525ZM102.976 10.9569C102.976 11.4813 103.108 11.8819 103.373 12.1881C103.623 12.4713 103.946 12.6244 104.325 12.6244C104.712 12.6244 105.035 12.4712 105.291 12.1775C105.539 11.8825 105.674 11.4475 105.674 10.8988C105.674 10.5644 105.618 10.2506 105.525 9.98438C105.405 9.71563 105.247 9.52188 105.035 9.39063C104.821 9.22438 104.585 9.15438 104.325 9.15438C103.963 9.15438 103.633 9.3125 103.373 9.57313C103.108 9.85313 102.976 10.3156 102.976 10.9569ZM106.86 13.0381V8.74063H107.642L108.572 11.795L108.764 12.445C108.792 12.2713 108.888 12.0488 108.961 11.7369L109.909 8.74063H110.615V13.0388H110.107V9.44313L108.961 13.0388H108.508L107.358 9.39063V13.0388H106.86V13.0381ZM111.432 13.0381V8.74063H112.923C113.214 8.74063 113.453 8.79063 113.639 8.87688C113.816 8.965 113.963 9.09625 114.052 9.28125C114.156 9.45938 114.221 9.65 114.221 9.85313C114.221 10.0313 114.156 10.2069 114.073 10.3694C113.983 10.5338 113.849 10.6519 113.669 10.7675C113.912 10.8431 114.073 10.9569 114.221 11.1431C114.34 11.3281 114.405 11.5619 114.405 11.795C114.405 12.0044 114.372 12.1888 114.299 12.3694C114.221 12.5375 114.116 12.6788 114.002 12.76C113.888 12.8644 113.743 12.9294 113.565 12.9738C113.386 13.0388 113.18 13.0388 112.927 13.0388H111.432V13.0381ZM111.941 10.5644H112.808C113.04 10.5644 113.206 10.5331 113.314 10.5119C113.434 10.4731 113.534 10.4025 113.613 10.2763C113.669 10.1844 113.693 10.0644 113.693 9.9225C113.693 9.77063 113.673 9.65063 113.613 9.53C113.55 9.42125 113.453 9.34625 113.335 9.3125C113.226 9.26875 113.023 9.2525 112.743 9.2525H111.941V10.565V10.5644ZM111.941 12.5375H112.927C113.095 12.5375 113.226 12.5375 113.29 12.5269C113.41 12.4937 113.509 12.4494 113.589 12.3956C113.673 12.3406 113.743 12.2531 113.797 12.1769C113.837 12.0487 113.857 11.9438 113.857 11.7956C113.857 11.6444 113.833 11.5031 113.743 11.3769C113.673 11.2631 113.573 11.1794 113.446 11.1319C113.32 11.0988 113.111 11.0663 112.863 11.0663H111.94V12.5375H111.941ZM115.215 8.74063V13.0388H115.731V8.74063H115.215ZM116.219 13.0388L117.728 8.74063H118.295L119.895 13.0388H119.313L118.85 11.7369H117.209L116.77 13.0388H116.219ZM117.359 11.285H118.684L118.282 10.0863C118.152 9.715 118.056 9.43438 117.995 9.18313C117.948 9.46438 117.882 9.75938 117.796 10.0313L117.359 11.285ZM55.5307 5.14125L56.0248 5.10875C56.0539 5.32688 56.104 5.51063 56.1876 5.6375C56.2774 5.77188 56.4136 5.88063 56.5864 5.96875C56.7511 6.045 56.9603 6.1 57.1907 6.1C57.3801 6.1 57.5628 6.05625 57.7194 6.0075C57.8785 5.93625 57.9764 5.845 58.0556 5.75125C58.1219 5.61125 58.1714 5.51063 58.1714 5.35313C58.1714 5.24438 58.1466 5.10875 58.0556 4.99938C57.9962 4.92313 57.8785 4.81438 57.7027 4.75938C57.5993 4.71625 57.3597 4.65 57 4.56313C56.6328 4.47188 56.3975 4.36313 56.2582 4.28563C56.0539 4.17625 55.9053 4.04563 55.8248 3.88938C55.7257 3.73625 55.6948 3.54 55.6948 3.33313C55.6948 3.12438 55.7505 2.93938 55.8545 2.75C55.9703 2.54188 56.1282 2.41188 56.3437 2.29875C56.5635 2.21062 56.8062 2.15625 57.0904 2.15625C57.3597 2.15625 57.6197 2.21063 57.8383 2.31875C58.0612 2.41875 58.2358 2.56438 58.3559 2.7825C58.4785 2.97438 58.5355 3.19063 58.5454 3.44188L58.0327 3.48438C58.0222 3.22375 57.9169 2.99688 57.7789 2.87438C57.6197 2.73438 57.3993 2.65187 57.1009 2.65187C56.7672 2.65187 56.548 2.72375 56.4136 2.85188C56.2582 2.97438 56.1876 3.12438 56.1876 3.31125C56.1876 3.4625 56.2446 3.59375 56.3437 3.6825C56.4334 3.78 56.7108 3.88875 57.1257 3.99125C57.543 4.105 57.8327 4.1875 57.9962 4.27C58.2259 4.38875 58.3912 4.54125 58.5107 4.71625C58.5943 4.87938 58.6692 5.0975 58.6692 5.32688C58.6692 5.53813 58.5943 5.77188 58.4785 5.96875C58.3708 6.16875 58.1918 6.31875 57.9764 6.44938C57.7485 6.55813 57.4934 6.61188 57.2055 6.61188C56.8508 6.61188 56.548 6.55813 56.3139 6.43813C56.0836 6.31813 55.8911 6.1475 55.7505 5.91313C55.6155 5.70688 55.5412 5.44438 55.5307 5.14125ZM61.9674 2.2375L62.4801 2.2375V4.71688C62.4801 5.14188 62.4405 5.485 62.3408 5.75188C62.2603 6.00813 62.1012 6.21 61.8516 6.38375C61.6226 6.52563 61.3192 6.61313 60.9458 6.61313C60.5731 6.61313 60.2734 6.53688 60.0443 6.39438C59.8004 6.275 59.64 6.05688 59.5304 5.805C59.4308 5.53188 59.3874 5.175 59.3874 4.7175V2.23625H59.91V4.71563C59.91 5.09688 59.9409 5.35313 59.9998 5.53063C60.0635 5.70625 60.1731 5.85938 60.3174 5.93563C60.4821 6.04438 60.6728 6.09938 60.8969 6.09938C61.2789 6.09938 61.5625 6.00688 61.7086 5.81563C61.8777 5.61063 61.9674 5.25 61.9674 4.71563V2.2375ZM63.3562 6.53688V2.23688H64.8422C65.0954 2.23688 65.2892 2.25875 65.4279 2.27188C65.618 2.30313 65.787 2.37437 65.9275 2.47187C66.0415 2.57063 66.1467 2.7125 66.2247 2.90875C66.3102 3.07063 66.3405 3.25625 66.3405 3.48063C66.3405 3.83813 66.2353 4.17 66.0309 4.41063C65.8316 4.66125 65.4341 4.79188 64.8818 4.79188H63.8534V6.53563H63.3562V6.53688ZM63.8534 4.28625H64.8812C65.2279 4.28625 65.4582 4.215 65.5981 4.075C65.7467 3.94375 65.808 3.7475 65.808 3.50313C65.808 3.31188 65.7672 3.18063 65.6916 3.03438C65.5988 2.90938 65.4985 2.80938 65.3585 2.78313C65.2793 2.75063 65.1096 2.75063 64.8818 2.75063H63.8534V4.28625ZM67.0321 6.53625V2.2375L69.8802 2.2375V2.75063L67.546 2.75063V4.0525H69.7378V4.575L67.546 4.575V6.04563L69.9601 6.04563V6.53688H67.0321V6.53625ZM70.6987 6.53625V2.2375H72.4478C72.7809 2.2375 73.0602 2.2725 73.2335 2.35313C73.4236 2.41938 73.5567 2.56 73.6768 2.75063C73.7926 2.95313 73.8366 3.18063 73.8366 3.40938C73.8366 3.72125 73.7561 3.98813 73.5567 4.17688C73.3735 4.38938 73.1103 4.52625 72.7302 4.58625C72.8608 4.65063 72.9741 4.7175 73.0397 4.7925C73.2001 4.94625 73.3369 5.1425 73.4769 5.35375L74.1561 6.53688H73.5035L72.9741 5.63813C72.8342 5.38 72.6942 5.17563 72.5964 5.04438C72.511 4.92375 72.4113 4.80813 72.3519 4.76C72.272 4.70188 72.1816 4.6725 72.1079 4.65063C72.0342 4.61813 71.9488 4.61813 71.815 4.61813H71.2169V6.53688H70.6987V6.53625ZM71.2169 4.14063H72.3314C72.5772 4.14063 72.7611 4.10563 72.8905 4.0525C73.0236 3.99188 73.1295 3.91625 73.2001 3.79625C73.2595 3.67125 73.3035 3.54063 73.3035 3.40875C73.3035 3.22438 73.2335 3.03375 73.1041 2.90875C72.9741 2.78313 72.7512 2.71313 72.4614 2.71313H71.2169V4.14063ZM74.7325 2.2375V6.53688H75.265V2.23688H74.7325V2.2375ZM76.1733 6.53688V2.23688H76.7101L78.7681 5.61125V2.23688H79.2746V6.53625H78.7372L76.6804 3.1575V6.53625H76.1726L76.1733 6.53688ZM81.1482 6.53688V2.75H79.8566V2.2375H82.9666V2.75063H81.6775V6.53688H81.1482ZM83.5195 6.53688V2.23688L86.3639 2.23688V2.75H84.0371V4.05188H86.2079V4.57438H84.0371V6.045H86.4537V6.53625H83.5201L83.5195 6.53688ZM87.1737 6.53688V2.23688H87.7229L89.7643 5.61125V2.23688H90.2639V6.53625H89.7364L87.6728 3.1575V6.53625H87.1737V6.53688ZM91.1487 6.53688V2.23688L92.4954 2.23688C92.813 2.23688 93.0328 2.25875 93.2074 2.29875C93.4365 2.3525 93.616 2.44625 93.7894 2.5925C93.9894 2.7925 94.1435 3.03313 94.2469 3.3325C94.3423 3.6375 94.4061 3.9875 94.4061 4.3625C94.4061 4.68313 94.3522 4.9775 94.302 5.24375C94.2185 5.47938 94.1435 5.70688 94.0234 5.86C93.9237 6.045 93.7956 6.1425 93.6594 6.25188C93.5516 6.33938 93.3869 6.405 93.1931 6.45938C93.0167 6.51438 92.813 6.53625 92.5585 6.53625H91.1493L91.1487 6.53688ZM91.6682 6.04563H92.4978C92.7641 6.04563 92.9733 6.00813 93.1133 5.93688C93.2569 5.89938 93.3863 5.81688 93.4662 5.74C93.5857 5.58938 93.6953 5.41563 93.7448 5.175C93.8296 4.95625 93.8563 4.68375 93.8563 4.36313C93.8563 3.90063 93.7956 3.5625 93.655 3.31188C93.5262 3.08875 93.3727 2.90938 93.1733 2.82688C93.0229 2.78313 92.7938 2.75063 92.4954 2.75063L91.6682 2.75063V6.04563ZM95.1342 6.53688V2.23688H97.9742V2.75L95.6524 2.75V4.05188L97.8195 4.05188V4.57438H95.6524V6.045H98.0591V6.53625H95.1342V6.53688ZM98.781 6.53688V2.23688H99.3079L101.38 5.61125V2.23688H101.874V6.53625H101.34L99.2881 3.1575V6.53625H98.781V6.53688ZM105.555 5.01063L106.088 5.17438C105.988 5.63688 105.771 6.0075 105.491 6.24125C105.202 6.48125 104.849 6.6125 104.446 6.6125C104.037 6.6125 103.687 6.51438 103.428 6.31875C103.134 6.13188 102.94 5.86 102.802 5.51063C102.672 5.14188 102.606 4.75938 102.606 4.3625C102.606 3.9 102.672 3.51125 102.851 3.19063C102.985 2.8525 103.22 2.5925 103.5 2.41875C103.791 2.25875 104.122 2.15625 104.459 2.15625C104.849 2.15625 105.188 2.25875 105.451 2.47688C105.731 2.7125 105.915 3.0175 106.022 3.41938L105.525 3.54C105.405 3.22938 105.291 2.99688 105.117 2.86625C104.923 2.7125 104.713 2.64125 104.446 2.64125C104.147 2.64125 103.887 2.72375 103.691 2.88688C103.493 3.04813 103.344 3.25563 103.254 3.51188C103.18 3.78063 103.134 4.07438 103.134 4.3625C103.134 4.71625 103.18 5.0325 103.28 5.30438C103.384 5.58875 103.534 5.7825 103.752 5.91375C103.947 6.045 104.171 6.12125 104.409 6.12125C104.713 6.12125 104.936 6.045 105.156 5.84438C105.351 5.66938 105.491 5.38625 105.556 5.01063H105.555ZM106.805 2.23688V6.53625H107.328V2.23688H106.805ZM107.816 6.53625L109.335 2.23688H109.897L111.512 6.53625H110.903L110.451 5.24438H108.792L108.372 6.53625H107.816H107.816ZM108.962 4.77063H110.297L109.877 3.57688C109.759 3.22375 109.658 2.90813 109.594 2.68438C109.545 2.95313 109.481 3.22938 109.381 3.51125L108.962 4.77063ZM113.474 6.53625V2.23688H116.124V2.75H113.984V4.075H115.837V4.58625H113.984V6.53625H113.474ZM116.891 2.23688V6.53625H117.409V2.23688H116.891ZM118.335 6.53625V2.23688H118.85L120.926 5.61125V2.23688H121.433V6.53625H120.902L118.825 3.1575V6.53625H118.335ZM121.868 6.53625L123.392 2.23688H123.943L125.552 6.53625H124.965L124.486 5.24438H122.849L122.414 6.53625H121.868ZM123.009 4.77063H124.341L123.935 3.57688C123.803 3.22375 123.699 2.90813 123.656 2.68438C123.579 2.95313 123.532 3.22938 123.44 3.51125L123.009 4.77063ZM125.956 6.53625V2.23688H126.499L128.557 5.61125V2.23688H129.059V6.53625H128.521L126.465 3.1575V6.53625H125.956ZM132.761 5.01063L133.268 5.17438C133.145 5.63688 132.964 6.0075 132.681 6.24125C132.388 6.48125 132.055 6.6125 131.64 6.6125C131.213 6.6125 130.869 6.51438 130.6 6.31875C130.334 6.13188 130.131 5.86 130.002 5.51063C129.864 5.14188 129.791 4.75938 129.791 4.3625C129.791 3.9 129.864 3.51125 130.017 3.19063C130.181 2.8525 130.394 2.5925 130.685 2.41875C130.983 2.25875 131.296 2.15625 131.656 2.15625C132.042 2.15625 132.361 2.25875 132.645 2.47688C132.911 2.7125 133.091 3.0175 133.204 3.41938L132.685 3.54C132.581 3.22938 132.468 2.99688 132.294 2.86625C132.118 2.7125 131.909 2.64125 131.64 2.64125C131.332 2.64125 131.072 2.72375 130.877 2.88688C130.673 3.04813 130.529 3.25563 130.45 3.51188C130.366 3.78063 130.309 4.07438 130.309 4.3625C130.309 4.71625 130.366 5.0325 130.466 5.30438C130.573 5.58875 130.729 5.7825 130.934 5.91375C131.129 6.045 131.353 6.12125 131.599 6.12125C131.895 6.12125 132.128 6.045 132.338 5.84438C132.557 5.66938 132.681 5.38625 132.761 5.01063ZM133.995 2.23688V6.53625H134.518V2.23688H133.995ZM135.445 6.53625V2.23688H138.29V2.75L135.959 2.75V4.05188L138.141 4.05188V4.57438H135.958V6.045H138.389V6.53625H135.445ZM139.111 6.53625V2.23688H140.849C141.208 2.23688 141.466 2.27187 141.658 2.3525C141.845 2.41875 141.989 2.55938 142.095 2.75C142.2 2.9525 142.254 3.18 142.254 3.40875C142.254 3.72063 142.164 3.9875 141.989 4.17625C141.811 4.38875 141.532 4.52563 141.143 4.58563C141.282 4.65 141.398 4.71688 141.459 4.79188C141.605 4.94563 141.761 5.14188 141.881 5.35313L142.571 6.53625H141.917L141.412 5.6375C141.258 5.37938 141.119 5.175 141.019 5.04375C140.923 4.92313 140.843 4.8075 140.775 4.75938C140.691 4.70125 140.606 4.67188 140.531 4.65C140.472 4.6175 140.372 4.6175 140.236 4.6175H139.63V6.53625H139.111ZM139.63 4.14H140.745C140.989 4.14 141.182 4.105 141.302 4.05188C141.446 3.99125 141.542 3.91563 141.605 3.79563C141.672 3.67063 141.725 3.54 141.725 3.40813C141.725 3.22375 141.658 3.03313 141.525 2.90813C141.377 2.7825 141.168 2.7125 140.879 2.7125H139.63V4.14ZM142.651 6.53625L144.162 2.23688H144.715L146.323 6.53625H145.731L145.273 5.24438H143.625L143.206 6.53625H142.651ZM143.773 4.77063H145.123L144.691 3.57688C144.559 3.22375 144.479 2.90813 144.419 2.68438C144.365 2.95313 144.306 3.22938 144.211 3.51125L143.773 4.77063Z" fill="black"/>
</g>
<mask id="mask1_3038_21315" style="mask-type:alpha" maskUnits="userSpaceOnUse" x="0" y="0" width="147" height="15">
<path d="M0.114105 0V14.9756L146.323 14.9756V0L0.114105 0Z" fill="white"/>
</mask>
<g mask="url(#mask1_3038_21315)">
<path fill-rule="evenodd" clip-rule="evenodd" d="M0.114578 0V1.8025L52.4082 1.8025V0L0.114578 0ZM0.114578 13.1688V14.9756L52.4082 14.9756V13.1694L0.114578 13.1694V13.1688Z" fill="black"/>
</g>
</g>
<defs>
<clipPath id="clip0_3038_21315">
<rect width="146.739" height="15" fill="white"/>
</clipPath>
</defs>
</svg>
