<svg width="85" height="29" viewBox="0 0 85 29" fill="none" xmlns="http://www.w3.org/2000/svg">
<path d="M0 17.5774L11.52 29L23.0364 17.5774L20.3592 14.9228L11.52 23.6874L5.35788 17.5774L11.52 11.4709L14.1449 14.0736L16.8256 11.4191L11.52 6.15827L0 17.5774Z" fill="#0081C6"/>
<path d="M23.0399 11.4226L11.52 0L0 11.4226L2.68068 14.0772L11.52 5.31259L17.682 11.4226L11.52 17.5291L8.89497 14.9263L6.2143 17.5809L11.52 22.8417L23.0399 11.4226Z" fill="#0081C6"/>
<path d="M55.2705 11.429C54.5685 11.574 53.8617 11.6416 53.4815 11.6561C52.2142 11.7141 51.9753 11.1921 51.9753 9.35063C51.9753 7.50913 52.219 6.97746 53.4815 7.03062C53.8617 7.04512 54.6709 7.2143 55.2705 7.27713L55.446 6.19929C54.8561 6.09296 54.0762 5.95763 53.5449 5.93346C50.7274 5.8078 50.0401 6.98713 50.0401 9.34579C50.0401 11.7045 50.7274 12.8645 53.5449 12.7581C54.1201 12.7388 54.8903 12.6325 55.4898 12.5165L55.2705 11.429Z" fill="#021D3F"/>
<path d="M29.7959 8.57709V11.3418H31.9261C32.9302 11.3418 33.4177 11.0711 33.4177 9.85792C33.4177 8.58675 32.4964 8.57709 31.8237 8.57709H29.7959ZM29.7959 4.72008V7.30592H31.8237C32.7547 7.30592 33.0716 6.92893 33.0716 5.89459C33.0716 4.96176 32.7596 4.72008 31.6823 4.72008H29.7959ZM31.6823 3.42475C33.7394 3.42475 34.9629 4.27059 34.9629 5.88975C34.9629 6.86609 34.6168 7.47992 34.0806 7.83759C34.7338 8.16142 35.3041 8.74143 35.3041 9.85309C35.3041 11.9604 33.8125 12.6226 31.9212 12.6226H27.9143V3.41991H31.6823V3.42475Z" fill="#021D3F"/>
<path d="M39.969 9.41335C39.969 9.41335 39.3597 9.40367 38.7406 9.48101C38.1021 9.56317 37.7462 9.87734 37.7462 10.525C37.7462 11.0083 37.9071 11.4337 38.5847 11.5642C39.0136 11.6463 39.4474 11.6222 39.9641 11.5642V9.41335H39.969ZM36.4447 6.31034C37.5512 6.09284 38.3165 5.93334 39.1257 5.93334C40.9878 5.93334 41.836 6.7985 41.836 8.1325V12.5598C40.7051 12.6903 39.5449 12.8208 38.2971 12.6952C36.7616 12.5357 35.8159 11.7575 35.8159 10.525C35.8159 9.40367 36.4935 8.61102 38.2581 8.40318C39.0282 8.31618 39.9641 8.31135 39.9641 8.31135V8.05518C39.9641 7.37368 39.7204 7.06434 39.1208 7.06434C38.4774 7.06434 37.6926 7.21418 36.6397 7.42202L36.4447 6.31034Z" fill="#021D3F"/>
<path d="M60.4715 9.23934C60.4715 7.55734 59.9061 7.045 59.0141 7.045C57.888 7.045 57.4981 7.42201 57.4981 9.21518C57.4981 11.1292 57.7564 11.6415 59.0141 11.6415C60.2522 11.6415 60.4715 11.0373 60.4715 9.23934ZM59.0141 5.93334C61.1296 5.93334 62.3873 6.94834 62.3873 9.23934C62.3873 11.5207 61.6999 12.7483 59.0141 12.7483C56.3672 12.7483 55.5873 11.6705 55.5873 9.21518C55.5873 6.89518 56.6987 5.93334 59.0141 5.93334Z" fill="#021D3F"/>
<path d="M69.9765 7.1272C69.6548 7.04504 69.1674 6.9677 68.6897 7.03053C67.7587 7.1562 67.5344 7.67337 67.5344 9.22487C67.5344 10.8489 67.7245 11.5449 69.1138 11.627C69.6743 11.6609 69.9814 11.6077 69.9814 11.6077V7.1272H69.9765ZM71.8386 3.43455V12.5937C70.8101 12.7097 70.1277 12.7532 69.3819 12.7532C66.2378 12.7532 65.5943 11.4724 65.5943 9.19587C65.5943 7.17554 66.3012 5.91403 68.6848 5.91403C69.1674 5.91403 69.611 5.94787 69.9717 5.99621V3.43455H71.8386Z" fill="#021D3F"/>
<path d="M77.1717 8.76568C77.1229 7.44618 76.7573 7.045 75.8458 7.045C74.9879 7.045 74.6125 7.45585 74.5638 8.76568H77.1717ZM78.8095 12.4342C77.7907 12.6468 76.8597 12.758 75.9481 12.758C73.1697 12.758 72.6091 11.3225 72.6091 9.34084C72.6091 6.83717 73.779 5.93334 75.7824 5.93334C77.937 5.93334 79.063 6.93867 79.063 9.11851V9.87251H74.5687C74.6174 11.0953 74.8806 11.6367 75.9677 11.6367C76.5965 11.6367 77.9321 11.4675 78.6048 11.3225L78.8095 12.4342Z" fill="#021D3F"/>
<path d="M42.8302 6.59067C43.9075 6.16533 44.897 5.92367 46.0279 5.92367C48.4359 5.92367 49.2548 7.08365 49.2548 9.20549V12.6275H47.383V9.20549C47.383 7.57665 47.0174 7.03533 46.0279 7.03533C45.5355 7.03533 45.0091 7.14166 44.6728 7.23349V12.6275H42.8302V6.59067Z" fill="#021D3F"/>
<path d="M48.3922 24.2441C47.6903 24.3891 46.9835 24.4568 46.6033 24.4713C45.3359 24.5293 45.0922 24.0073 45.0922 22.1658C45.0922 20.3243 45.3359 19.7926 46.6033 19.8458C46.9786 19.8603 47.7927 20.0343 48.3922 20.0923L48.5677 19.0145C47.9779 18.9081 47.198 18.7728 46.6666 18.7486C43.8492 18.623 43.1667 19.8023 43.1667 22.161C43.1667 24.5196 43.854 25.6796 46.6715 25.5733C47.2467 25.554 48.0169 25.4476 48.6165 25.3316L48.3922 24.2441Z" fill="#0081C6"/>
<path d="M42.6451 24.2441C41.9432 24.3891 41.2364 24.4568 40.8611 24.4713C39.5937 24.5293 39.3548 24.0073 39.3548 22.1658C39.3548 20.3243 39.5986 19.7926 40.8611 19.8458C41.2364 19.8603 42.0505 20.0343 42.6451 20.0923L42.8206 19.0145C42.2308 18.9081 41.4509 18.7728 40.9196 18.7486C38.1021 18.623 37.4196 19.8023 37.4196 22.161C37.4196 24.5196 38.107 25.6796 40.9244 25.5733C41.4996 25.554 42.2698 25.4476 42.8694 25.3316L42.6451 24.2441Z" fill="#0081C6"/>
<path d="M32.3404 24.2634C34.4023 24.2634 34.763 23.2387 34.763 20.7061C34.763 18.2652 33.832 17.4339 32.3404 17.4339C30.5271 17.4339 29.8398 18.0961 29.8398 20.6771C29.8398 23.3982 30.2541 24.2634 32.3404 24.2634ZM36.6787 20.7012C36.6787 23.8912 35.8257 25.5491 32.3355 25.5491C28.8697 25.5491 27.9143 24.1087 27.9143 20.6674C27.9143 17.4291 29.3036 16.1482 32.3355 16.1482C35.0994 16.1482 36.6787 17.5064 36.6787 20.7012Z" fill="#0081C6"/>
<path d="M49.4794 18.8743H51.3219V25.4477H49.4794V18.8743ZM49.4794 16.4963H51.3219V17.8787H49.4794V16.4963Z" fill="#0081C6"/>
<path d="M56.6253 19.9424C56.3035 19.8602 55.8161 19.7829 55.3384 19.8457C54.4073 19.9714 54.1831 20.4886 54.1831 22.0401C54.1831 23.6641 54.3732 24.3746 55.7625 24.4422C55.8551 24.4519 55.9672 24.4519 56.0939 24.4519C56.2548 24.4519 56.4693 24.4277 56.6301 24.4229V19.9424H56.6253ZM56.6253 16.2497H58.4873V25.4089C57.4344 25.4959 56.7764 25.5684 56.0306 25.5684C52.8865 25.5684 52.2479 24.2876 52.2479 22.0159C52.2479 19.9907 52.9547 18.7341 55.3384 18.7341C55.8258 18.7341 56.2645 18.7679 56.6253 18.8162V16.2497Z" fill="#0081C6"/>
<path d="M66.7301 19.4058C67.8074 18.9805 68.797 18.7388 69.9278 18.7388C72.3359 18.7388 73.1548 19.894 73.1548 22.0158V25.4378H71.283V22.0158C71.283 20.387 70.9174 19.8457 69.9278 19.8457C69.4355 19.8457 68.9091 19.952 68.5727 20.0438V25.4378H66.7301V19.4058Z" fill="#0081C6"/>
<path d="M76.5962 17.3516V18.908H78.0683V20.0196H76.5962V23.2821C76.5962 24.0409 76.6547 24.3213 76.9813 24.3648C77.2689 24.4035 77.5565 24.36 78.0634 24.3165L78.2828 25.4088C77.4736 25.5635 76.8936 25.5731 76.6108 25.5731C74.973 25.5731 74.6903 24.8239 74.6903 23.2821V20.0196H73.5545V18.908H74.6903V17.3516H76.5962Z" fill="#0081C6"/>
<path d="M63.9663 21.576C63.9175 20.2565 63.5471 19.8602 62.6404 19.8602C61.7825 19.8602 61.4072 20.271 61.3584 21.576H63.9663ZM65.5993 25.2445C64.5805 25.4572 63.6494 25.5732 62.7379 25.5732C59.9594 25.5732 59.3988 24.1377 59.3988 22.156C59.3988 19.6523 60.5687 18.7485 62.5673 18.7485C64.7218 18.7485 65.8478 19.7538 65.8478 21.9337V22.6877H61.3535C61.4071 23.9105 61.6655 24.4518 62.7525 24.4518C63.3813 24.4518 64.7169 24.2827 65.3896 24.1377L65.5993 25.2445Z" fill="#0081C6"/>
<path d="M83.1087 21.5808C83.0599 20.2662 82.6895 19.865 81.7828 19.865C80.9249 19.865 80.5495 20.2758 80.5008 21.5857L83.1087 21.5808ZM84.7416 25.2493C83.7229 25.462 82.7967 25.5732 81.8803 25.5732C79.1018 25.5732 78.5461 24.1377 78.5461 22.156C78.5461 19.6523 79.716 18.7485 81.7194 18.7485C83.874 18.7485 85 19.7538 85 21.9337V22.6877H80.5057C80.5593 23.9105 80.8176 24.4518 81.9047 24.4518C82.5335 24.4518 83.8691 24.2827 84.5418 24.1377L84.7416 25.2493Z" fill="#0081C6"/>
</svg>
